<svg xmlns="http://www.w3.org/2000/svg" viewBox="0 0 64 64">
  <!-- Fondo -->
  <rect width="64" height="64" rx="10" ry="10" fill="#2c3e50"/>
  
  <!-- Ãrboles (simplificados en silueta) -->
  <g transform="translate(6, 28)">
    <path d="M8 0 L4 10 H6 L3 16 H5 L2 22 H14 L11 16 H13 L10 10 H12 Z" fill="#2ecc71"/>
    <rect x="7" y="22" width="2" height="10" fill="#8e6e53"/>
  </g>
  
  <g transform="translate(20, 30)">
    <path d="M8 0 L4 10 H6 L3 16 H5 L2 22 H14 L11 16 H13 L10 10 H12 Z" fill="#27ae60"/>
    <rect x="7" y="22" width="2" height="10" fill="#7f5f45"/>
  </g>

  <!-- Llamas -->
  <g transform="translate(32, 28)">
    <path d="M8 20c-4-4-6-8-6-12 0-4 2-7 4-9 1 2 2 3 4 4-1-3-1-6 1-9 4 3 6 8 6 12 0 5-2 9-6 14z" fill="#e67e22"/>
    <path d="M8 20c3-4 5-7 5-11 0-3-1-6-3-9 3 1 5 5 5 9 0 4-2 8-7 11z" fill="#e74c3c"/>
  </g>

  <!-- Humo -->
  <g transform="translate(38, 6)" opacity="0.6">
    <circle cx="0" cy="0" r="4" fill="#bdc3c7"/>
    <circle cx="6" cy="4" r="3" fill="#bdc3c7"/>
    <circle cx="12" cy="2" r="2" fill="#ecf0f1"/>
  </g>
</svg>